<svg width="960" height="260" viewBox="0 0 960 260" fill="none" xmlns="http://www.w3.org/2000/svg">
  <rect width="960" height="260" rx="28" fill="#F6F8FA"/>

  <!-- 1: Orbit / agent navigation -->
  <g transform="translate(60 30)">
    <rect width="200" height="200" rx="48" fill="#111827"/>
    <circle cx="100" cy="100" r="17" fill="#FFFFFF"/>
    <path d="M52 102C68 63 111 48 148 70" stroke="#FFFFFF" stroke-width="10" stroke-linecap="round"/>
    <path d="M148 98C133 137 90 152 52 130" stroke="#FFFFFF" stroke-width="10" stroke-linecap="round"/>
    <circle cx="151" cy="70" r="10" fill="#FFFFFF"/>
    <circle cx="49" cy="130" r="10" fill="#FFFFFF"/>
  </g>

  <!-- 2: Folded route / work execution -->
  <g transform="translate(280 30)">
    <rect width="200" height="200" rx="48" fill="#111827"/>
    <path d="M56 70H118C132 70 143 81 143 95C143 109 132 120 118 120H82C68 120 57 131 57 145C57 159 68 170 82 170H145" stroke="#FFFFFF" stroke-width="13" stroke-linecap="round"/>
    <circle cx="56" cy="70" r="12" fill="#FFFFFF"/>
    <path d="M134 158L146 170L134 182" stroke="#FFFFFF" stroke-width="10" stroke-linecap="round" stroke-linejoin="round"/>
  </g>

  <!-- 3: Stacked workspace / mold layers -->
  <g transform="translate(500 30)">
    <rect width="200" height="200" rx="48" fill="#111827"/>
    <rect x="55" y="55" width="86" height="86" rx="20" stroke="#FFFFFF" stroke-width="12"/>
    <rect x="75" y="75" width="70" height="70" rx="18" fill="#111827" stroke="#FFFFFF" stroke-width="12"/>
    <circle cx="145" cy="145" r="14" fill="#FFFFFF"/>
  </g>

  <!-- 4: Pilot pointer / precise action -->
  <g transform="translate(720 30)">
    <rect width="200" height="200" rx="48" fill="#111827"/>
    <path d="M60 151L100 49L140 151L103 128L80 151L91 114L60 151Z" fill="#FFFFFF"/>
    <path d="M100 49L103 128" stroke="#111827" stroke-width="7" stroke-linecap="round"/>
    <circle cx="100" cy="112" r="10" fill="#111827"/>
  </g>
</svg>
